<svg width="156" height="52" viewBox="0 0 156 52" fill="none" xmlns="http://www.w3.org/2000/svg">
<path d="M0.625 0.40625H13.75C17.8958 0.40625 21.0312 0.729167 23.1562 1.375C25.3021 2.02083 27.0312 3.33333 28.3438 5.3125C29.6562 7.27083 30.3125 10.4375 30.3125 14.8125C30.3125 17.7708 29.8438 19.8333 28.9062 21C27.9896 22.1667 26.1667 23.0625 23.4375 23.6875C26.4792 24.375 28.5417 25.5208 29.625 27.125C30.7083 28.7083 31.25 31.1458 31.25 34.4375V39.125C31.25 42.5417 30.8542 45.0729 30.0625 46.7188C29.2917 48.3646 28.0521 49.4896 26.3438 50.0938C24.6354 50.6979 21.1354 51 15.8438 51H0.625V0.40625ZM13.7812 9.0625V20.3125C14.3438 20.2917 14.7812 20.2812 15.0938 20.2812C16.3854 20.2812 17.2083 19.9688 17.5625 19.3438C17.9167 18.6979 18.0938 16.875 18.0938 13.875C18.0938 12.2917 17.9479 11.1875 17.6562 10.5625C17.3646 9.91667 16.9792 9.51042 16.5 9.34375C16.0417 9.17708 15.1354 9.08333 13.7812 9.0625ZM13.7812 28.1875V42.3438C15.6354 42.2812 16.8125 41.9896 17.3125 41.4688C17.8333 40.9479 18.0938 39.6667 18.0938 37.625V32.9062C18.0938 30.7396 17.8646 29.4271 17.4062 28.9688C16.9479 28.5104 15.7396 28.25 13.7812 28.1875ZM48.625 0.40625V7H35.625V0.40625H48.625ZM48.625 9.53125V51H35.625V9.53125H48.625ZM80.375 9.53125L75.25 26.0625L81.9062 51H69.75L65.8125 32.9375V51H53.1875V0.40625H65.8125V21.6562L69.75 9.53125H80.375ZM112.406 31H96.0625V39.9688C96.0625 41.8438 96.1979 43.0521 96.4688 43.5938C96.7396 44.1354 97.2604 44.4062 98.0312 44.4062C98.9896 44.4062 99.625 44.0521 99.9375 43.3438C100.271 42.6146 100.438 41.2188 100.438 39.1562V33.6875H112.406V36.75C112.406 39.3125 112.24 41.2812 111.906 42.6562C111.594 44.0312 110.844 45.5 109.656 47.0625C108.469 48.625 106.958 49.8021 105.125 50.5938C103.312 51.3646 101.031 51.75 98.2812 51.75C95.6146 51.75 93.2604 51.3646 91.2188 50.5938C89.1771 49.8229 87.5833 48.7708 86.4375 47.4375C85.3125 46.0833 84.5312 44.6042 84.0938 43C83.6562 41.375 83.4375 39.0208 83.4375 35.9375V23.8438C83.4375 20.2188 83.9271 17.3646 84.9062 15.2812C85.8854 13.1771 87.4896 11.5729 89.7188 10.4688C91.9479 9.34375 94.5104 8.78125 97.4062 8.78125C100.948 8.78125 103.865 9.45833 106.156 10.8125C108.469 12.1458 110.083 13.9271 111 16.1562C111.938 18.3646 112.406 21.4792 112.406 25.5V31ZM99.75 24.25V21.2188C99.75 19.0729 99.6354 17.6875 99.4062 17.0625C99.1771 16.4375 98.7083 16.125 98 16.125C97.125 16.125 96.5833 16.3958 96.375 16.9375C96.1667 17.4583 96.0625 18.8854 96.0625 21.2188V24.25H99.75ZM142.344 22.7812H131.156V20.5312C131.156 18.6146 131.042 17.4062 130.812 16.9062C130.604 16.3854 130.062 16.125 129.188 16.125C128.479 16.125 127.948 16.3646 127.594 16.8438C127.24 17.3021 127.062 18 127.062 18.9375C127.062 20.2083 127.146 21.1458 127.312 21.75C127.5 22.3333 128.031 22.9792 128.906 23.6875C129.802 24.3958 131.625 25.4271 134.375 26.7812C138.042 28.5729 140.448 30.2604 141.594 31.8438C142.74 33.4271 143.312 35.7292 143.312 38.75C143.312 42.125 142.875 44.6771 142 46.4062C141.125 48.1146 139.656 49.4375 137.594 50.375C135.552 51.2917 133.083 51.75 130.188 51.75C126.979 51.75 124.229 51.25 121.938 50.25C119.667 49.25 118.104 47.8958 117.25 46.1875C116.396 44.4792 115.969 41.8958 115.969 38.4375V36.4375H127.156V39.0625C127.156 41.2917 127.292 42.7396 127.562 43.4062C127.854 44.0729 128.417 44.4062 129.25 44.4062C130.146 44.4062 130.771 44.1875 131.125 43.75C131.479 43.2917 131.656 42.3438 131.656 40.9062C131.656 38.9271 131.427 37.6875 130.969 37.1875C130.49 36.6875 128.042 35.2083 123.625 32.75C119.917 30.6667 117.656 28.7812 116.844 27.0938C116.031 25.3854 115.625 23.3646 115.625 21.0312C115.625 17.7188 116.062 15.2812 116.938 13.7188C117.812 12.1354 119.292 10.9167 121.375 10.0625C123.479 9.20833 125.917 8.78125 128.688 8.78125C131.438 8.78125 133.771 9.13542 135.688 9.84375C137.625 10.5312 139.104 11.4479 140.125 12.5938C141.167 13.7396 141.792 14.8021 142 15.7812C142.229 16.7604 142.344 18.2917 142.344 20.375V22.7812ZM155.094 40.6875V51H145.562V40.6875H155.094Z" fill="#EEEEEE"/>
</svg>
